<svg id="Layer_1" data-name="Layer 1" xmlns="http://www.w3.org/2000/svg" viewBox="0 0 127.5 134.05"><defs><style>.cls-1{fill:none;stroke:#222221;stroke-linecap:round;stroke-linejoin:round;stroke-width:3.58px;}.cls-2{fill:#222221;}.cls-3{fill:#fff;}.cls-4{font-size:22px;fill:#020201;font-family:NexaBold, Nexa Bold;}.cls-5{letter-spacing:0.02em;}.cls-6{letter-spacing:0.03em;}</style></defs><title>Logo_final</title><line class="cls-1" x1="93.33" y1="92.82" x2="80.33" y2="92.82"/><line class="cls-1" x1="33.16" y1="92.87" x2="46.16" y2="92.87"/><line class="cls-1" x1="16.3" y1="72.1" x2="27.14" y2="58.1"/><line class="cls-1" x1="112.02" y1="70.39" x2="101.18" y2="56.39"/><line class="cls-1" x1="80.33" y1="77.91" x2="85.96" y2="92.82"/><line class="cls-1" x1="46.16" y1="77.96" x2="40.53" y2="92.87"/><path class="cls-2" d="M49.78,97.85a1.94,1.94,0,0,1-.94-.25l-.72-.42-11.2-6.82-.1.11a2.79,2.79,0,0,1-3.51.61,5,5,0,0,1-.61-.41l-4.22-3a1.13,1.13,0,0,1-.29-1.45,1,1,0,0,1,.13-.16.64.64,0,0,1,.44-.17.68.68,0,0,1,.31.08c1.22.67,4.7,2.39,4.74,2.41L34,88s-3.25-2-4.44-2.77a.62.62,0,0,1-.29-.67,1.29,1.29,0,0,1,.12-.36.84.84,0,0,1,.21-.25A.63.63,0,0,1,30,83.8a.68.68,0,0,1,.31.08c1.24.68,4.59,2.44,4.62,2.46l.19-.31s-3.2-2.1-4.37-2.79a.62.62,0,0,1-.3-.63.78.78,0,0,1,.09-.33,1.13,1.13,0,0,1,1-.57,1.06,1.06,0,0,1,.42.09l4.66,2a5.16,5.16,0,0,1,.67.32,2.8,2.8,0,0,1,1.25,3.34l-.06.15L50,93.88l.66.38a2,2,0,0,1,.88,2.41,1.91,1.91,0,0,1-1.77,1.18Z" transform="translate(-26.25 -22.08)"/><path class="cls-2" d="M131.11,95.88a1.36,1.36,0,0,1-.29,0,1.51,1.51,0,0,1-1.15-.81,1.9,1.9,0,0,1,.84-2.47l.66-.44L139.44,87l0,0a2,2,0,0,0,.29-1.29c0-.41,0-.68.21-.83l.67-.56a34.1,34.1,0,0,1,2.84-2.1,31.75,31.75,0,0,1,4.62-2.52l1.18-.53a1.9,1.9,0,0,1,2.51.93,2,2,0,0,1-.75,2.47l-4.38,2.89L133,94.92l-.74.49A2.27,2.27,0,0,1,131.11,95.88Z" transform="translate(-26.25 -22.08)"/><circle class="cls-1" cx="63.78" cy="41.54" r="39.75"/><circle class="cls-2" cx="63.78" cy="41.54" r="30.62"/><circle class="cls-3" cx="75.79" cy="26.74" r="8.57"/><text class="cls-4" transform="translate(0 125.43)">GE<tspan class="cls-5" x="29.77" y="0">E</tspan><tspan x="43.96" y="0">N ZI</tspan><tspan class="cls-6" x="82.61" y="0">C</tspan><tspan x="97.81" y="0">HT</tspan></text></svg>